<svg width="17" height="16" viewBox="0 0 17 16" fill="none" xmlns="http://www.w3.org/2000/svg">
<path d="M8.48053 1.34082C9.40084 1.34089 10.1473 2.08655 10.1475 3.00684C10.1475 3.04878 10.1447 3.09064 10.1417 3.13184C11.6531 3.70364 12.7501 5.04301 12.7501 6.66699V10.6689L14.1387 12.418C14.4336 12.7893 14.1695 13.3369 13.6954 13.3369H10.2628C10.045 14.1062 9.33908 14.6699 8.50006 14.6699C7.66104 14.6699 6.95515 14.1062 6.73737 13.3369H3.16705C2.97534 13.3369 2.80037 13.2272 2.71686 13.0547C2.63343 12.8819 2.65617 12.6766 2.77545 12.5264L4.25006 10.6689V6.66699C4.25006 5.05728 5.32756 3.7266 6.81842 3.14648C6.81461 3.10056 6.81354 3.05371 6.81354 3.00684C6.81371 2.08651 7.56016 1.34082 8.48053 1.34082ZM7.83405 13.3369C7.9861 13.5391 8.22759 13.6699 8.50006 13.6699C8.77232 13.6699 9.01304 13.5389 9.1651 13.3369H7.83405ZM8.50006 3.83301C6.64814 3.83301 5.25006 5.15593 5.25006 6.66699V10.8428C5.25006 10.9556 5.21172 11.0649 5.14166 11.1533L4.20221 12.3369H12.7979L11.8585 11.1533C11.7884 11.0649 11.7501 10.9556 11.7501 10.8428V6.66699C11.7501 5.15594 10.352 3.83303 8.50006 3.83301ZM8.48053 2.34082C8.15523 2.34082 7.88492 2.57362 7.82623 2.88184C8.04647 2.8499 8.27164 2.83301 8.50006 2.83301C8.71466 2.83301 8.92639 2.84773 9.13385 2.87598C9.0729 2.57068 8.80374 2.34088 8.48053 2.34082Z" fill="white"/>
</svg>
